<?xml version="1.0" encoding="iso-8859-1"?>
<!-- Uploaded to: SVG Repo, www.svgrepo.com, Generator: SVG Repo Mixer Tools -->
<svg fill="#000000" height="800px" width="800px" version="1.1" id="Layer_1" xmlns="http://www.w3.org/2000/svg" xmlns:xlink="http://www.w3.org/1999/xlink" 
	 viewBox="0 0 512 512" xml:space="preserve">
<g>
	<g>
		<path d="M294.028,198.446c-6.439,0-11.677,5.238-11.677,11.677c0,6.438,5.238,11.676,11.677,11.676
			c6.439,0,11.677-5.238,11.677-11.676C305.705,203.684,300.467,198.446,294.028,198.446z"/>
	</g>
</g>
<g>
	<g>
		<path d="M217.836,198.446c-6.439,0-11.677,5.238-11.677,11.677c0,6.438,5.238,11.676,11.677,11.676
			c6.438,0,11.676-5.238,11.677-11.676C229.513,203.684,224.275,198.446,217.836,198.446z"/>
	</g>
</g>
<g>
	<g>
		<path d="M266.184,247.664h-20.416c-5.769,0-10.446,4.677-10.446,10.446c0,11.388,9.266,20.654,20.654,20.654
			c11.388,0,20.653-9.265,20.654-20.654C276.63,252.34,271.953,247.664,266.184,247.664z"/>
	</g>
</g>
<g>
	<g>
		<path d="M63.891,240.206c-6.336,0-11.491,5.155-11.491,11.491s5.155,11.491,11.491,11.491c6.337,0,11.491-5.155,11.491-11.491
			S70.227,240.206,63.891,240.206z"/>
	</g>
</g>
<g>
	<g>
		<path d="M81.793,304.998h-0.158c-5.769,0-10.446,4.677-10.446,10.446s4.677,10.446,10.446,10.446h0.158
			c5.769,0,10.446-4.677,10.446-10.446S87.562,304.998,81.793,304.998z"/>
	</g>
</g>
<g>
	<g>
		<path d="M119.126,305.16c-8.688-22.633-30.361-37.831-55.234-37.831c-24.875,0-46.547,15.199-55.234,37.831
			c-4.892,0.87-8.606,5.144-8.606,10.284v27.16c0,5.769,4.677,10.446,10.446,10.446h106.788c5.769,0,10.446-4.677,10.446-10.446
			v-27.16C127.732,310.302,124.018,306.029,119.126,305.16z M106.84,332.158H20.944v-6.268h25.944
			c5.769,0,10.446-4.677,10.446-10.446s-4.677-10.446-10.446-10.446H32.163c6.947-10.284,18.651-16.778,31.728-16.778
			c17.91,0,33.253,12.169,37.314,29.594c0.736,3.157,2.859,5.698,5.635,7.039V332.158z"/>
	</g>
</g>
<g>
	<g>
		<path d="M289.522,432.442h-0.137c-5.769,0-10.446,4.677-10.446,10.446c0,5.769,4.677,10.446,10.446,10.446h0.137
			c5.769,0,10.446-4.677,10.446-10.446C299.968,437.119,295.291,432.442,289.522,432.442z"/>
	</g>
</g>
<g>
	<g>
		<path d="M289.522,398.667h-0.137c-5.769,0-10.446,4.677-10.446,10.446c0,5.769,4.677,10.446,10.446,10.446h0.137
			c5.769,0,10.446-4.677,10.446-10.446C299.968,403.343,295.291,398.667,289.522,398.667z"/>
	</g>
</g>
<g>
	<g>
		<path d="M289.522,364.89h-0.137c-5.769,0-10.446,4.677-10.446,10.446s4.677,10.446,10.446,10.446h0.137
			c5.769,0,10.446-4.677,10.446-10.446S295.291,364.89,289.522,364.89z"/>
	</g>
</g>
<g>
	<g>
		<path d="M222.516,432.442h-0.137c-5.769,0-10.446,4.677-10.446,10.446c0,5.769,4.677,10.446,10.446,10.446h0.137
			c5.769,0,10.446-4.677,10.446-10.446C232.962,437.119,228.285,432.442,222.516,432.442z"/>
	</g>
</g>
<g>
	<g>
		<path d="M188.583,432.441h-39.191c-5.769,0-10.446,4.677-10.446,10.446s4.677,10.446,10.446,10.446h39.191
			c5.769,0,10.446-4.677,10.446-10.446S194.353,432.441,188.583,432.441z"/>
	</g>
</g>
<g>
	<g>
		<path d="M222.516,398.667h-0.137c-5.769,0-10.446,4.677-10.446,10.446c0,5.769,4.677,10.446,10.446,10.446h0.137
			c5.769,0,10.446-4.677,10.446-10.446C232.962,403.343,228.285,398.667,222.516,398.667z"/>
	</g>
</g>
<g>
	<g>
		<path d="M222.516,364.89h-0.137c-5.769,0-10.446,4.677-10.446,10.446s4.677,10.446,10.446,10.446h0.137
			c5.769,0,10.446-4.677,10.446-10.446S228.285,364.89,222.516,364.89z"/>
	</g>
</g>
<g>
	<g>
		<path d="M71.085,160.124c-1.788,0-3.535,0.182-5.223,0.525v-22.462h13.58c5.769,0,10.446-4.677,10.446-10.446
			c0-5.769-4.677-10.446-10.446-10.446h-13.58v-3.831h13.58c5.769,0,10.446-4.677,10.446-10.446c0-5.769-4.677-10.446-10.446-10.446
			H55.416c-5.769,0-10.446,4.677-10.446,10.446v57.632c-1.688-0.344-3.435-0.525-5.223-0.525c-14.4,0-26.115,11.715-26.115,26.116
			c0,14.4,11.715,26.115,26.115,26.115c5.875,0,11.302-1.951,15.669-5.238c4.368,3.286,9.794,5.238,15.669,5.238
			c14.4,0,26.116-11.715,26.116-26.116S85.486,160.124,71.085,160.124z M39.747,191.463c-2.88,0-5.223-2.343-5.223-5.223
			s2.343-5.223,5.223-5.223c2.88,0,5.223,2.343,5.223,5.223S42.627,191.463,39.747,191.463z M71.085,191.463
			c-2.88,0-5.223-2.343-5.223-5.223s2.343-5.223,5.223-5.223c2.88,0,5.223,2.343,5.223,5.223S73.965,191.463,71.085,191.463z"/>
	</g>
</g>
<g>
	<g>
		<path d="M10.583,477.36h-0.137C4.677,477.36,0,482.037,0,487.806s4.677,10.446,10.446,10.446h0.137
			c5.769,0,10.446-4.677,10.446-10.446S16.353,477.36,10.583,477.36z"/>
	</g>
</g>
<g>
	<g>
		<path d="M501.554,353.05h-26.33v-22.949c0-5.769-4.677-10.446-10.446-10.446h-73.552c-5.769,0-10.446,4.677-10.446,10.446v22.949
			h-17.078l-51.285-21.369c-2.39-0.996-3.935-3.313-3.935-5.903v-16.267l27.305-15.657c0.19-0.109,0.377-0.225,0.561-0.346
			c13.672-9.029,22.651-25.087,24.016-42.954c0.021-0.264,0.03-0.531,0.03-0.796v-8.671c13.565-4.412,23.398-17.178,23.398-32.196
			c0-15.018-9.833-27.784-23.398-32.196v-21.64c0-6.083-1.08-19.287-5.216-32.556V36.977c0-4.644-3.066-8.73-7.524-10.029
			c-45.236-13.179-91.537-16.509-137.629-9.903c-15.361,2.212-30.741,5.545-45.712,9.902c-4.459,1.299-7.526,5.385-7.526,10.03
			v86.324c-2.982,9.333-5.317,30.749-5.317,31.754v21.64c-13.565,4.412-23.398,17.178-23.398,32.196s9.833,27.784,23.398,32.196
			v8.671c0,0.265,0.01,0.532,0.03,0.796c1.372,17.94,10.286,33.997,23.848,42.954c0.187,0.123,0.378,0.24,0.572,0.352l27.462,15.7
			v16.217c0,2.59-1.545,4.907-3.935,5.903l-67.231,28.013c-17.595,7.332-29.882,26.672-29.882,47.033v70.632H44.379
			c-5.769,0-10.446,4.677-10.446,10.446s4.677,10.446,10.446,10.446h457.175c5.769,0,10.446-4.677,10.446-10.446v-124.31
			C512,357.727,507.323,353.05,501.554,353.05z M338.41,141.542c-11.337,6.945-24.253,10.592-37.701,10.592
			c-23.439,0-45.111-11.352-58.57-29.844c31.634-1.462,63.24,2.061,94.35,10.541C337.281,135.701,337.931,138.605,338.41,141.542z
			 M177.68,44.917c11.639-3.075,23.486-5.49,35.318-7.193c40.566-5.816,81.33-3.395,121.289,7.189v65.735
			c-40.97-10.138-82.702-12.262-124.261-6.303c-10.825,1.56-21.656,3.674-32.346,6.312V44.917z M245.47,477.36H123.226v-70.632
			c0-11.774,7.32-23.703,17.026-27.748l67.231-28.013c10.2-4.252,16.791-14.138,16.791-25.188v-4.274
			c0,0,16.604,9.176,21.196,10.342V477.36z M243.427,308.415c-0.187-0.123-0.378-0.241-0.572-0.352l-56.249-32.157
			c-7.983-5.406-13.282-15.29-14.243-26.566v-17.048c0-5.769-4.677-10.446-10.446-10.446c-7.142,0-12.952-5.811-12.952-12.953
			s5.811-12.952,12.952-12.952c5.769,0,10.446-4.677,10.446-10.446v-27.682c0.239-0.877,0.368-1.802,0.368-2.756
			c0-1.173,0.024-2.343,0.073-3.51c18.29-2.169,35.163-10.315,48.252-23.257c16.792,27.512,46.88,44.738,79.655,44.738
			c13.565,0,26.711-2.884,38.793-8.429v20.896c0,5.769,4.677,10.446,10.446,10.446c7.142,0,12.952,5.811,12.952,12.952
			c0,7.142-5.811,12.953-12.952,12.953c-5.769,0-10.446,4.677-10.446,10.446v17.047c-0.948,11.047-6.441,21.17-14.417,26.57
			L269,308.069c-0.191,0.109-0.377,0.225-0.561,0.346C260.609,313.588,251.257,313.587,243.427,308.415z M343.731,432.441h-20.414
			c-5.769,0-10.446,4.677-10.446,10.446s4.677,10.446,10.446,10.446h20.414v24.026h-77.368V331.855
			c4.606-1.166,9.094-3.087,13.296-5.816l7.931-4.547v4.287c0,11.052,6.592,20.938,16.792,25.189l39.349,16.395V432.441z
			 M401.673,340.547h52.659v12.503h-52.659V340.547z M491.108,477.36H364.624V373.943h126.484V477.36z"/>
	</g>
</g>
<g>
	<g>
		<path d="M460.56,398.666h-0.158c-5.769,0-10.446,4.677-10.446,10.446c0,5.769,4.677,10.446,10.446,10.446h0.158
			c5.769,0,10.446-4.677,10.446-10.446C471.006,403.342,466.329,398.666,460.56,398.666z"/>
	</g>
</g>
<g>
	<g>
		<path d="M425.656,398.667h-30.484c-5.769,0-10.446,4.677-10.446,10.446c0,5.769,4.677,10.446,10.446,10.446h30.484
			c5.769,0,10.446-4.677,10.446-10.446C436.102,403.343,431.425,398.667,425.656,398.667z"/>
	</g>
</g>
</svg>